name ./resultDataOpenSim/trcMotMarkerGrf/sub06/grf-14-04.mot
datacolumns 19
datarows 12
range 0.54000000 0.58400000
endheader

                time	     ground_force_vx	     ground_force_vy	     ground_force_vz	     ground_force_px	     ground_force_py	     ground_force_pz	   l_ground_force_vx	   l_ground_force_vy	   l_ground_force_vz	   l_ground_force_px	   l_ground_force_py	   l_ground_force_pz	     ground_torque_x	     ground_torque_y	     ground_torque_z	   l_ground_torque_x	   l_ground_torque_y	   l_ground_torque_z	
          0.54000000	        114.24899123	        722.90997643	        -24.83980098	         -0.83374642	          0.00000000	          0.09936821	          0.00000000	          0.00000000	          0.00000000	          0.00000000	          0.00000000	          0.00000000	          0.00000000	          0.67506041	          0.00000000	          0.00000000	          0.00000000	          0.00000000	
          0.54400000	        120.93378857	        739.56629081	        -24.79180726	         -0.83311907	          0.00000000	          0.09864590	          0.00000000	          0.00000000	          0.00000000	          0.00000000	          0.00000000	          0.00000000	          0.00000000	          0.75774461	          0.00000000	          0.00000000	          0.00000000	          0.00000000	
          0.54800000	        127.64284479	        755.13740924	        -24.31112510	         -0.83245347	          0.00000000	          0.09795899	          0.00000000	          0.00000000	          0.00000000	          0.00000000	          0.00000000	          0.00000000	          0.00000000	          0.86044179	          0.00000000	          0.00000000	          0.00000000	          0.00000000	
          0.55200000	        134.36300785	        769.36543742	        -23.37265791	         -0.83172092	          0.00000000	          0.09731743	          0.00000000	          0.00000000	          0.00000000	          0.00000000	          0.00000000	          0.00000000	          0.00000000	          0.98240549	          0.00000000	          0.00000000	          0.00000000	          0.00000000	
          0.55600000	        141.14208721	        782.21691284	        -22.01931829	         -0.83095739	          0.00000000	          0.09668980	          0.00000000	          0.00000000	          0.00000000	          0.00000000	          0.00000000	          0.00000000	          0.00000000	          1.11762336	          0.00000000	          0.00000000	          0.00000000	          0.00000000	
          0.56000000	        148.06621727	        793.74781569	        -20.37903669	         -0.83023199	          0.00000000	          0.09604230	          0.00000000	          0.00000000	          0.00000000	          0.00000000	          0.00000000	          0.00000000	          0.00000000	          1.25612571	          0.00000000	          0.00000000	          0.00000000	          0.00000000	
          0.56400000	        155.18560156	        803.88665951	        -18.63647897	         -0.82957015	          0.00000000	          0.09537794	          0.00000000	          0.00000000	          0.00000000	          0.00000000	          0.00000000	          0.00000000	          0.00000000	          1.38586340	          0.00000000	          0.00000000	          0.00000000	          0.00000000	
          0.56800000	        162.47447084	        812.38130078	        -16.96539560	         -0.82892857	          0.00000000	          0.09473464	          0.00000000	          0.00000000	          0.00000000	          0.00000000	          0.00000000	          0.00000000	          0.00000000	          1.49484619	          0.00000000	          0.00000000	          0.00000000	          0.00000000	
          0.57200000	        169.86658457	        818.96921410	        -15.48641749	         -0.82825461	          0.00000000	          0.09415185	          0.00000000	          0.00000000	          0.00000000	          0.00000000	          0.00000000	          0.00000000	          0.00000000	          1.57321782	          0.00000000	          0.00000000	          0.00000000	          0.00000000	
          0.57600000	        177.31113619	        823.58974006	        -14.26502844	         -0.82754412	          0.00000000	          0.09363435	          0.00000000	          0.00000000	          0.00000000	          0.00000000	          0.00000000	          0.00000000	          0.00000000	          1.61487926	          0.00000000	          0.00000000	          0.00000000	          0.00000000	
          0.58000000	        184.78164570	        826.38879618	        -13.31001322	         -0.82684381	          0.00000000	          0.09314864	          0.00000000	          0.00000000	          0.00000000	          0.00000000	          0.00000000	          0.00000000	          0.00000000	          1.61829163	          0.00000000	          0.00000000	          0.00000000	          0.00000000	
          0.58400000	        192.24040576	        827.50568212	        -12.56371208	         -0.82619222	          0.00000000	          0.09266533	          0.00000000	          0.00000000	          0.00000000	          0.00000000	          0.00000000	          0.00000000	          0.00000000	          1.58630185	          0.00000000	          0.00000000	          0.00000000	          0.00000000	
